HIERARCHY
ROOT Reference
{
  OFFSET 0 0 0
  CHANNELS 6 Xposition Yposition Zposition Zrotation Xrotation Yrotation
  JOINT Hips
  {
    OFFSET 251.394 724.17 483.536
    CHANNELS 3 Zrotation Xrotation Yrotation
    JOINT RightUpLeg
    {
      OFFSET -0.450515 -23.4426 -1.37224
      CHANNELS 3 Zrotation Xrotation Yrotation
      JOINT RightLeg
      {
        OFFSET 112.821 0.0872427 -0.321027
        CHANNELS 3 Zrotation Xrotation Yrotation
        JOINT RightFoot
        {
          OFFSET 105.718 0.000193788 0.0213165
          CHANNELS 3 Zrotation Xrotation Yrotation
          JOINT RightToeBase
          {
            OFFSET 37.638 -0.000116272 0.00224792
            CHANNELS 3 Zrotation Xrotation Yrotation
            JOINT RightToeEnd
            {
              OFFSET 21.2112 0.114605 -0.000138184
              CHANNELS 3 Zrotation Xrotation Yrotation
              End Site
              {
                OFFSET 0 0 0
              }
            }
          }
        }
      }
    }
    JOINT LeftUpLeg
    {
      OFFSET -0.449508 23.4315 -1.37054
      CHANNELS 3 Zrotation Xrotation Yrotation
      JOINT LeftLeg
      {
        OFFSET 112.821 -0.0485242 -0.372458
        CHANNELS 3 Zrotation Xrotation Yrotation
        JOINT LeftFoot
        {
          OFFSET 105.716 0.00496094 -0.0229443
          CHANNELS 3 Zrotation Xrotation Yrotation
          JOINT LeftToeBase
          {
            OFFSET 37.639 0 0.00158905
            CHANNELS 3 Zrotation Xrotation Yrotation
            JOINT LeftToeEnd
            {
              OFFSET 21.2113 -0.125031 -0.00017438
              CHANNELS 3 Zrotation Xrotation Yrotation
              End Site
              {
                OFFSET 0 0 0
              }
            }
          }
        }
      }
    }
    JOINT Spine
    {
      OFFSET -5.01225 0.000463591 -9.60395
      CHANNELS 3 Zrotation Xrotation Yrotation
      JOINT Spine1
      {
        OFFSET 26.0222 -0.000271301 -0.000155029
        CHANNELS 3 Zrotation Xrotation Yrotation
        JOINT Spine2
        {
          OFFSET 27.173 -0.000155029 -0.000310058
          CHANNELS 3 Zrotation Xrotation Yrotation
          JOINT Spine3
          {
            OFFSET 36.3953 -0.000232544 7.75146e-005
            CHANNELS 3 Zrotation Xrotation Yrotation
            JOINT Neck
            {
              OFFSET 36.4331 0 -3.00261
              CHANNELS 3 Zrotation Xrotation Yrotation
              JOINT Head
              {
                OFFSET 23.0407 -0.000232544 -0.000310058
                CHANNELS 3 Zrotation Xrotation Yrotation
                End Site
                {
                  OFFSET 0 0 0
                }
              }
            }
            JOINT LeftShoulder
            {
              OFFSET 20.1317 6.74168 -12.6061
              CHANNELS 3 Zrotation Xrotation Yrotation
              JOINT LeftArm
              {
                OFFSET 34.2172 -5.81359e-005 7.75146e-005
                CHANNELS 3 Zrotation Xrotation Yrotation
                JOINT LeftForeArm
                {
                  OFFSET 65.4129 -0.0821605 0.0585235
                  CHANNELS 3 Zrotation Xrotation Yrotation
                  JOINT LeftHand
                  {
                    OFFSET 67.3883 0.0359667 0.0112396
                    CHANNELS 3 Zrotation Xrotation Yrotation
                    JOINT LeftHandThumb1
                    {
                      OFFSET 8.78386 2.85353 -6.05362
                      CHANNELS 3 Zrotation Xrotation Yrotation
                      JOINT LeftHandThumb2
                      {
                        OFFSET 8.25498 -0.000116272 -0.000174407
                        CHANNELS 3 Zrotation Xrotation Yrotation
                        JOINT LeftHandThumb3
                        {
                          OFFSET 7.24822 0.000310058 5.81358e-005
                          CHANNELS 3 Zrotation Xrotation Yrotation
                          JOINT LeftHandThumb4
                          {
                            OFFSET 7.0004 -3.87568e-005 -0.000310057
                            CHANNELS 3 Zrotation Xrotation Yrotation
                            End Site
                            {
                              OFFSET 0 0 0
                            }
                          }
                        }
                      }
                    }
                    JOINT LeftHandIndex1
                    {
                      OFFSET 24.0991 -1.01537 -5.40558
                      CHANNELS 3 Zrotation Xrotation Yrotation
                      JOINT LeftHandIndex2
                      {
                        OFFSET 7.26759 -0.000290679 -0.000465086
                        CHANNELS 3 Zrotation Xrotation Yrotation
                        JOINT LeftHandIndex3
                        {
                          OFFSET 7.13628 -1.93787e-005 0.000232543
                          CHANNELS 3 Zrotation Xrotation Yrotation
                          JOINT LeftHandIndex4
                          {
                            OFFSET 5.46699 9.68932e-005 -0.000387571
                            CHANNELS 3 Zrotation Xrotation Yrotation
                            End Site
                            {
                              OFFSET 0 0 0
                            }
                          }
                        }
                      }
                    }
                    JOINT LeftHandMiddle1
                    {
                      OFFSET 24.4604 -2.52837 0.918567
                      CHANNELS 3 Zrotation Xrotation Yrotation
                      JOINT LeftHandMiddle2
                      {
                        OFFSET 7.41627 -5.81359e-005 0.000116271
                        CHANNELS 3 Zrotation Xrotation Yrotation
                        JOINT LeftHandMiddle3
                        {
                          OFFSET 8.76829 3.87573e-005 -7.75142e-005
                          CHANNELS 3 Zrotation Xrotation Yrotation
                          JOINT LeftHandMiddle4
                          {
                            OFFSET 6.07588 -0.00013565 -5.81356e-005
                            CHANNELS 3 Zrotation Xrotation Yrotation
                            End Site
                            {
                              OFFSET 0 0 0
                            }
                          }
                        }
                      }
                    }
                    JOINT LeftHandRing1
                    {
                      OFFSET 22.465 -1.97467 6.3466
                      CHANNELS 3 Zrotation Xrotation Yrotation
                      JOINT LeftHandRing2
                      {
                        OFFSET 7.36666 -0.000232544 0.000387571
                        CHANNELS 3 Zrotation Xrotation Yrotation
                        JOINT LeftHandRing3
                        {
                          OFFSET 8.07624 -0.000465087 -0.000203475
                          CHANNELS 3 Zrotation Xrotation Yrotation
                          JOINT LeftHandRing4
                          {
                            OFFSET 6.04433 0.00013565 3.87571e-005
                            CHANNELS 3 Zrotation Xrotation Yrotation
                            End Site
                            {
                              OFFSET 0 0 0
                            }
                          }
                        }
                      }
                    }
                    JOINT LeftHandPinky1
                    {
                      OFFSET 19.5278 0.352933 10.4295
                      CHANNELS 3 Zrotation Xrotation Yrotation
                      JOINT LeftHandPinky2
                      {
                        OFFSET 6.16525 5.8136e-005 -0.000251921
                        CHANNELS 3 Zrotation Xrotation Yrotation
                        JOINT LeftHandPinky3
                        {
                          OFFSET 6.14448 -0.000329434 -0.00510625
                          CHANNELS 3 Zrotation Xrotation Yrotation
                          JOINT LeftHandPinky4
                          {
                            OFFSET 4.98555 0.000116272 0.000116271
                            CHANNELS 3 Zrotation Xrotation Yrotation
                            End Site
                            {
                              OFFSET 0 0 0
                            }
                          }
                        }
                      }
                    }
                  }
                }
              }
            }
            JOINT RightShoulder
            {
              OFFSET 20.1309 -6.74152 -12.6063
              CHANNELS 3 Zrotation Xrotation Yrotation
              JOINT RightArm
              {
                OFFSET 34.2171 7.75146e-005 7.75146e-005
                CHANNELS 3 Zrotation Xrotation Yrotation
                JOINT RightForeArm
                {
                  OFFSET 65.4492 0.242543 -0.176501
                  CHANNELS 3 Zrotation Xrotation Yrotation
                  JOINT RightHand
                  {
                    OFFSET 67.3888 -0.0867388 0.0597442
                    CHANNELS 3 Zrotation Xrotation Yrotation
                    JOINT RightHandThumb1
                    {
                      OFFSET 8.78307 -2.85357 -6.05302
                      CHANNELS 3 Zrotation Xrotation Yrotation
                      JOINT RightHandThumb2
                      {
                        OFFSET 8.25493 -7.75145e-005 0
                        CHANNELS 3 Zrotation Xrotation Yrotation
                        JOINT RightHandThumb3
                        {
                          OFFSET 7.24797 -0.000174408 0.000155029
                          CHANNELS 3 Zrotation Xrotation Yrotation
                          JOINT RightHandThumb4
                          {
                            OFFSET 7.00062 0 0
                            CHANNELS 3 Zrotation Xrotation Yrotation
                            End Site
                            {
                              OFFSET 0 0 0
                            }
                          }
                        }
                      }
                    }
                    JOINT RightHandIndex1
                    {
                      OFFSET 24.0991 1.01525 -5.40578
                      CHANNELS 3 Zrotation Xrotation Yrotation
                      JOINT RightHandIndex2
                      {
                        OFFSET 7.26773 7.75144e-005 0.000232543
                        CHANNELS 3 Zrotation Xrotation Yrotation
                        JOINT RightHandIndex3
                        {
                          OFFSET 7.13572 -0.000310058 3.87571e-005
                          CHANNELS 3 Zrotation Xrotation Yrotation
                          JOINT RightHandIndex4
                          {
                            OFFSET 5.46717 0 3.87572e-005
                            CHANNELS 3 Zrotation Xrotation Yrotation
                            End Site
                            {
                              OFFSET 0 0 0
                            }
                          }
                        }
                      }
                    }
                    JOINT RightHandMiddle1
                    {
                      OFFSET 24.4603 2.52899 0.918547
                      CHANNELS 3 Zrotation Xrotation Yrotation
                      JOINT RightHandMiddle2
                      {
                        OFFSET 7.41641 -0.000116272 -0.000116272
                        CHANNELS 3 Zrotation Xrotation Yrotation
                        JOINT RightHandMiddle3
                        {
                          OFFSET 8.76765 -3.87577e-005 0.000232543
                          CHANNELS 3 Zrotation Xrotation Yrotation
                          JOINT RightHandMiddle4
                          {
                            OFFSET 6.07609 -0.000193787 -0.000116271
                            CHANNELS 3 Zrotation Xrotation Yrotation
                            End Site
                            {
                              OFFSET 0 0 0
                            }
                          }
                        }
                      }
                    }
                    JOINT RightHandRing1
                    {
                      OFFSET 22.465 1.97571 6.34696
                      CHANNELS 3 Zrotation Xrotation Yrotation
                      JOINT RightHandRing2
                      {
                        OFFSET 7.36684 0.000193786 0.000155029
                        CHANNELS 3 Zrotation Xrotation Yrotation
                        JOINT RightHandRing3
                        {
                          OFFSET 8.07614 -0.000271301 0
                          CHANNELS 3 Zrotation Xrotation Yrotation
                          JOINT RightHandRing4
                          {
                            OFFSET 6.04468 0.000232543 0
                            CHANNELS 3 Zrotation Xrotation Yrotation
                            End Site
                            {
                              OFFSET 0 0 0
                            }
                          }
                        }
                      }
                    }
                    JOINT RightHandPinky1
                    {
                      OFFSET 19.5277 -0.352346 10.4296
                      CHANNELS 3 Zrotation Xrotation Yrotation
                      JOINT RightHandPinky2
                      {
                        OFFSET 6.16508 0 0.000232543
                        CHANNELS 3 Zrotation Xrotation Yrotation
                        JOINT RightHandPinky3
                        {
                          OFFSET 6.14396 -0.000155048 -0.0048834
                          CHANNELS 3 Zrotation Xrotation Yrotation
                          JOINT RightHandPinky4
                          {
                            OFFSET 4.98577 -7.75146e-005 -7.75143e-005
                            CHANNELS 3 Zrotation Xrotation Yrotation
                            End Site
                            {
                              OFFSET 0 0 0
                            }
                          }
                        }
                      }
                    }
                  }
                }
              }
            }
          }
        }
      }
    }
  }
}
MOTION
Frames:	4
Frame Time:	0.0333333
0 0 0 -90 -7.01671e-015 -180 -9.82758 -7.13532 -93.4156 175.273 -7.28884 -58.4313 0.00583098 -0.00164536 -47.6966 2.9908 -1.77038 47.2331 -0.578015 0.0630092 61.9477 2.59771e-006 2.7101e-006 -86.4974 -171.365 -0.770204 -63.5127 0.975037 1.91095 -27.1652 9.20219 -4.02255 36.2895 0.587544 -0.126835 56.77 0.000118198 -6.56154e-005 -86.4975 -0.970405 2.61195 141.05 3.49707 -0.966454 -18.904 4.81414 0.977499 -17.2228 -0.414833 -4.17798 2.28098 16.2078 30.0573 4.95895 1.65702 16.3916 27.9737 105.375 27.3021 -20.7952 22.198 6.9757 30.2213 0.601812 49.8229 94.8389 -46.3125 10.7361 24.2116 -160.597 -0.45921 151.787 0.000459178 -0.000147411 15.2564 0.000146943 -4.88566e-005 9.05197 0.000180996 -0.00139757 -0.000157946 32.9046 86.445 -21.8866 -0.000336294 -0.000232823 7.34835 0.00097692 -0.000820642 3.41658 -0.00191897 -5.36011e-005 -2.34846 0.0323569 86.4497 26.1235 0.000101165 -0.000159724 10.3312 0.000837875 -0.000718228 11.1371 -0.000684515 -0.000656448 -2.38208 -63.8833 87.825 96.2099 9.58403e-005 -0.000872587 14.2798 0.00149668 -0.00043256 15.1056 -4.18144e-005 -0.000390201 -2.38331 -63.7933 86.2475 95.809 0.00108135 -0.00115864 16.6294 0.0112412 0.00277523 14.815 -0.0116701 9.63397e-005 -2.58863 -89.3363 -24.2712 -15.0559 -37.3377 -27.7938 47.4612 4.68597 -49.1816 75.2332 25.8412 4.91189 5.23737 157.122 0.949174 161.123 -0.000195478 0.000102575 17.3012 8.34474e-005 8.65378e-005 14.9309 0.000335694 -0.000198364 180 -90.8635 -84.3552 -59.6572 -0.000372097 -0.000411905 21.7631 -1.03037e-005 4.8723e-005 19.501 -3.25212e-005 -0.000122054 179.06 -4.37061 -88.7652 37.342 -0.000151037 0.000133987 27.8079 -0.000101148 0.000375963 25.7488 0.000899517 -4.57703e-005 179.058 58.8643 -87.545 105.304 -1.07389e-005 0.000182081 31.7122 -0.000220783 0.000286357 29.661 -6.4291e-005 -0.000198338 179.06 58.2479 -84.9773 104.598 -0.00012199 0.000582877 32.6159 0.0242052 0.0139799 29.5633 -4.83452e-005 -0.000167827 179.123 
0 0 0 -90 -7.01671e-015 -180 -11.2028 -6.66012 -92.8709 176.979 -8.64261 -56.7356 -0.0228078 -0.0348452 -49.2537 3.22386 -2.83967 47.9288 -0.578644 0.0568975 62.5526 1.77963e-006 -1.07493e-005 -86.4974 -170.459 -1.88846 -62.3308 0.953721 1.84007 -27.2332 9.33074 -4.22399 36.1112 0.587745 -0.126245 56.8318 0.000118212 -6.51839e-005 -86.4975 -0.955833 2.62029 140.678 4.86787 -1.18014 -20.4182 4.50933 0.943577 -17.484 -0.974454 -2.6535 1.18998 15.9718 29.1575 5.51674 0.89692 17.3161 27.2197 104.621 27.4602 -20.1984 19.6045 5.02935 30.5348 5.35367 48.0727 98.0827 -46.4095 12.2335 28.8749 -160.184 -0.624926 151.792 0.000455456 -0.000146038 15.2305 0.000150089 -4.95768e-005 9.00194 0.000180996 -0.00140723 -0.000157946 33.9197 86.4509 -23.0123 -0.000335551 -0.000230259 7.16967 0.000975734 -0.000818632 3.26891 -0.00178155 -4.18168e-005 -2.29324 -0.203121 86.5395 26.2743 0.000101281 -0.000159924 10.215 0.000835341 -0.000719683 11.0097 -0.000636751 -0.000591936 -2.32619 -63.7337 87.7976 96.0087 8.80414e-005 -0.000870534 14.2149 0.00149715 -0.000431243 15.0245 -6.01651e-005 -0.000383606 -2.32725 -63.5743 86.193 95.5622 0.00107873 -0.00115833 16.5877 4.2378e-005 -0.000189236 14.7803 -4.31822e-005 0.000259868 -2.54587 -90.267 -23.9376 -17.5106 -37.233 -26.031 42.4141 3.68886 -48.5678 76.9836 24.6476 7.56671 5.85111 157.559 1.03208 159.376 -0.000194472 0.000105428 17.5936 8.47237e-005 8.80053e-005 14.1048 0.000396729 -1.52588e-005 180 -79.7805 -85.1621 -51.4363 -0.00038343 -0.000420124 20.2565 -9.36346e-006 5.73412e-005 17.6118 -4.8472e-005 -0.000122041 178.735 -2.8967 -88.2614 37.1087 -0.000146082 0.000137874 25.6007 -9.0504e-005 0.000377852 24.261 0.00134176 -4.57652e-005 178.732 60.1003 -87.6074 105.222 -5.09422e-006 0.00017414 29.5534 -0.000204956 0.000286332 28.2247 -5.01567e-005 -0.000198316 178.735 59.6058 -85.2852 104.6 -0.000102142 0.000584313 30.8348 -3.24951e-005 0.000195453 28.0924 -4.88921e-005 -0.000152556 178.83 
0 0 0 -90 -7.01671e-015 -180 -12.2711 -5.89255 -92.5007 178.804 -9.67561 -55.2539 -0.038923 -0.041367 -50.7971 3.55867 -3.75763 48.6555 -0.578718 0.0561091 62.6301 1.12748e-006 -3.12353e-005 -86.4974 -169.726 -2.87657 -61.1981 0.945477 1.8215 -27.7689 9.35867 -4.05927 36.3401 0.588405 -0.123498 57.1036 0.000118202 -6.46748e-005 -86.4975 -0.942096 2.62628 140.359 5.9929 -1.37732 -21.7604 3.91565 0.887266 -17.6074 -1.49429 -1.03717 -0.141164 15.292 28.1559 6.77708 0.265261 18.0224 26.4746 104.121 27.3164 -19.5415 15.774 1.53923 31.0161 10.9535 45.9541 101.417 -46.5847 12.8075 35.3885 -159.781 -0.787351 151.786 0.000458029 -0.000147063 15.1742 0.000148275 -4.82171e-005 8.95191 0.000180996 -0.001427 -0.000157946 34.7459 86.4601 -23.9821 -0.000336884 -0.00023538 6.96412 0.000969299 -0.000819016 3.07695 -0.00164975 -3.30521e-005 -2.23803 -0.49615 86.6278 26.4434 9.96082e-005 -0.000158143 10.0673 0.000836653 -0.000720597 10.8823 -0.000587238 -0.000526598 -2.2703 -63.6166 87.7764 95.7941 8.69405e-005 -0.00087247 14.108 0.00149376 -0.000429561 14.9434 -7.00435e-005 -0.000375362 -2.2712 -63.3912 86.1511 95.3017 0.00107931 -0.00116101 16.4977 3.59853e-005 -0.000194734 14.6861 -6.49557e-006 0.000302201 -2.49118 -91.0789 -23.5923 -19.9036 -37.1741 -24.3998 37.627 3.30024 -47.9874 77.4925 24.1809 12.0829 5.51766 157.978 1.11561 157.701 -0.000195429 0.000108873 17.8411 8.60913e-005 9.02786e-005 13.2786 0.000396729 -3.05176e-005 180 -66.5069 -85.8223 -41.1022 -0.000397008 -0.000428827 18.6682 -3.22617e-005 6.28949e-005 15.6396 -3.39051e-005 -0.000122024 178.41 -1.38818 -87.7736 36.8206 -0.000139972 0.000143416 23.3124 -7.91345e-005 0.000371422 22.6818 0.00178401 -4.57588e-005 178.407 61.2585 -87.6606 104.961 3.01162e-006 0.000164986 27.3112 -0.000190689 0.000284689 26.7051 -5.12811e-005 -0.000198288 178.41 60.9301 -85.5834 104.468 -8.2853e-005 0.000585961 28.9646 0.00539105 0.00278753 26.5241 -4.96725e-005 -0.000152538 178.537 
0 0 0 -90 -7.01671e-015 -180 -13.0425 -4.86691 -92.3965 -179.593 -10.471 -54.2702 -0.0529271 -0.0437565 -52.2349 3.78749 -4.20252 49.4352 -0.578451 0.0587463 62.3683 8.11703e-007 -6.26633e-005 -86.4974 -169.117 -3.75948 -60.3196 0.958889 1.86521 -28.4601 9.27996 -3.6339 36.3003 0.589444 -0.118823 57.5628 0.000118188 -6.43886e-005 -86.4975 -0.923814 2.63266 139.963 6.76409 -1.61589 -22.8394 3.10558 0.792618 -17.4414 -1.91207 0.526271 -1.78254 14.3352 27.2216 8.6143 -0.299782 18.8039 25.6906 103.386 26.9744 -18.8157 11.01 -3.57828 31.4404 15.913 43.4494 105.386 -46.6775 10.7805 41.8954 -159.39 -0.944968 151.775 0.000455723 -0.000144043 15.118 0.000147511 -4.96251e-005 8.8834 0.000181 -0.00146748 -0.000157946 35.392 86.472 -24.8023 -0.000335839 -0.000232223 6.75857 0.000967832 -0.00081893 2.885 -0.00151497 -1.5012e-005 -2.18282 -0.835144 86.7141 26.6233 9.96074e-005 -0.000156928 9.88951 -0.0120163 -0.00312209 10.6955 -0.000542495 -0.000461888 -2.21441 -63.4953 87.7601 95.5339 8.61908e-005 -0.000868682 13.9598 0.00148975 -0.000435417 14.8016 -8.66878e-005 -0.000368225 -2.21515 -63.2754 86.1177 95.0593 0.00107345 -0.00115867 16.365 0.00210813 0.000344595 14.5409 -0.00229045 -0.000541066 -2.4265 -91.5922 -23.2558 -22.0772 -37.1262 -22.8563 33.8856 3.75966 -47.5086 76.6577 23.5266 16.6158 4.03036 158.324 1.18468 156.299 -0.000197446 0.000110822 18.03 8.60493e-005 9.15768e-005 12.5999 0.000396729 -6.10352e-005 180 -52.7431 -86.2487 -30.1161 -0.000407649 -0.000435555 17.1133 -1.96212e-005 7.42894e-005 13.7342 -3.45969e-005 -0.000122002 178.085 -0.0154055 -87.3527 36.4465 -0.000132291 0.000146851 21.1239 -6.76543e-005 0.000364832 21.1284 0.00221099 -4.57508e-005 178.081 62.2464 -87.7024 104.54 5.88131e-006 0.000152293 25.164 -0.000172572 0.000289489 25.1856 -5.18954e-005 -0.000183004 178.085 62.0525 -85.8356 104.147 -6.28021e-005 0.000587372 27.1505 0.0108821 0.00523367 24.9558 -5.04527e-005 -0.000152516 178.244 
